<svg width="56" height="55" viewBox="0 0 56 55" fill="none" xmlns="http://www.w3.org/2000/svg">
<rect width="56" height="55" fill="white"/>
<circle opacity="0.1" cx="28" cy="28" r="25.5" fill="white" stroke="#283645" stroke-width="3"/>
<path d="M30.5641 21.1689C31.2458 20.9538 31.9837 20.9439 32.6719 21.1405C33.3602 21.3371 33.9633 21.7301 34.3947 22.2632C35.1053 22.0538 35.8055 21.816 36.5263 21.6066C36.5164 21.9258 36.4299 22.2391 36.2732 22.5237C36.1165 22.8084 35.8935 23.0574 35.6201 23.2528C35.8726 23.2788 36.1281 23.2511 36.3673 23.172C36.6064 23.0928 36.8228 22.9642 37 22.7961C36.901 23.2099 36.6999 23.597 36.4123 23.9271C36.1247 24.2572 35.7585 24.5214 35.3421 24.6992C35.095 30.9699 31.9748 35.1662 24.6533 34.9949H24.1487C23.7059 34.9949 19.7311 34.5667 19 33.2441C20.752 33.4899 22.5389 33.0976 23.984 32.1498C22.9542 31.8643 21.1316 31.7026 20.8227 29.4093C21.2108 29.5434 21.6321 29.5731 22.0378 29.495C20.7609 28.7052 19.3398 28.0391 19.4222 25.9933C19.8196 26.2988 20.3269 26.4551 20.8432 26.431C20.1018 26.2026 18.7529 23.3099 19.8959 21.8255C21.8215 23.5478 23.8604 25.1749 27.4851 25.3367C27.7117 23.2052 28.6899 21.7779 30.5641 21.1689Z" fill="#D22856"/>
</svg>
