<svg width="56" height="55" viewBox="0 0 56 55" fill="none" xmlns="http://www.w3.org/2000/svg">
<rect width="56" height="55" fill="white"/>
<circle opacity="0.1" cx="28" cy="28" r="25.5" fill="white" stroke="#283645" stroke-width="3"/>
<path d="M24.8336 34.8089C24.6463 34.9278 24.4247 34.9941 24.1963 34.9996C23.9678 35.0051 23.7426 34.9495 23.5487 34.8398C23.3548 34.7301 23.2007 34.571 23.1056 34.3824C23.0106 34.1938 22.9787 33.984 23.014 33.779V23.221C22.9787 23.016 23.0106 22.8062 23.1056 22.6176C23.2007 22.429 23.3548 22.2699 23.5487 22.1602C23.7426 22.0505 23.9678 21.9949 24.1963 22.0004C24.4247 22.0059 24.6463 22.0722 24.8336 22.1911L37.2333 27.6928C38.2556 28.1382 38.2556 28.8618 37.2333 29.3072L24.8336 34.8089Z" fill="#D22856"/>
</svg>
